<?xml version="1.0" encoding="UTF-8" standalone="no"?>
<svg
   xmlns:dc="http://purl.org/dc/elements/1.1/"
   xmlns:cc="http://creativecommons.org/ns#"
   xmlns:rdf="http://www.w3.org/1999/02/22-rdf-syntax-ns#"
   xmlns:svg="http://www.w3.org/2000/svg"
   xmlns="http://www.w3.org/2000/svg"
   xmlns:sodipodi="http://sodipodi.sourceforge.net/DTD/sodipodi-0.dtd"
   xmlns:inkscape="http://www.inkscape.org/namespaces/inkscape"
   viewBox="0 0 143.24557 143.24557"
   version="1.1"
   x="0px"
   y="0px"
   id="svg4258"
   inkscape:version="0.91 r13725"
   sodipodi:docname="logo.svg"
   width="143.24557"
   height="143.24557">
  <metadata
     id="metadata4340">
    <rdf:RDF>
      <cc:Work
         rdf:about="">
        <dc:format>image/svg+xml</dc:format>
        <dc:type
           rdf:resource="http://purl.org/dc/dcmitype/StillImage" />
        <dc:title>design_051-pixel-grid-show-rasterize</dc:title>
      </cc:Work>
    </rdf:RDF>
  </metadata>
  <defs
     id="defs4338" />
  <sodipodi:namedview
     pagecolor="#ffffff"
     bordercolor="#666666"
     borderopacity="1"
     objecttolerance="10"
     gridtolerance="10"
     guidetolerance="10"
     inkscape:pageopacity="0"
     inkscape:pageshadow="2"
     inkscape:window-width="1920"
     inkscape:window-height="1033"
     id="namedview4336"
     showgrid="false"
     fit-margin-top="0"
     fit-margin-left="0"
     fit-margin-right="0"
     fit-margin-bottom="0"
     inkscape:zoom="1.3906433"
     inkscape:cx="431.09512"
     inkscape:cy="-15.394875"
     inkscape:window-x="-4"
     inkscape:window-y="-4"
     inkscape:window-maximized="1"
     inkscape:current-layer="svg4258" />
  <title
     id="title4260">design_051-pixel-grid-show-rasterize</title>
  <desc
     id="desc4262">Created with Sketch.</desc>
  <g
     id="g4264"
     style="fill:none;fill-rule:evenodd;stroke:none;stroke-width:1"
     transform="matrix(6.821218,0,0,6.821218,-6.821218,-6.821218)">
    <g
       transform="translate(-44,-284)"
       id="g4266"
       style="fill:#000000">
      <g
         transform="translate(45,285)"
         id="g4268">
        <path
           d="m 1.0028508,19.998535 18.9956842,-0.0014 -0.0014,-18.9956838 -18.9956838,0.00139 0.00139,18.9956838 z M 0.99874609,0 20.001254,0 C 20.552846,0 21,0.43861485 21,0.99874609 L 21,20.001254 C 21,20.552846 20.561385,21 20.001254,21 L 0.99874609,21 C 0.44715386,21 0,20.561385 0,20.001254 L 0,0.99874609 C 0,0.44715386 0.43861485,0 0.99874609,0 Z"
           id="path4270"
           inkscape:connector-curvature="0" />
        <rect
           x="4"
           y="0"
           width="1"
           height="17"
           id="rect4272" />
        <rect
           x="8"
           y="0"
           width="1"
           height="13"
           id="rect4274" />
        <rect
           x="12"
           y="0"
           width="1"
           height="9"
           id="rect4276" />
        <rect
           x="16"
           y="0"
           width="1"
           height="5"
           id="rect4278" />
        <rect
           x="0"
           y="8"
           width="13"
           height="1"
           id="rect4280" />
        <rect
           x="0"
           y="4"
           width="17"
           height="1"
           id="rect4282" />
        <rect
           x="0"
           y="12"
           width="9"
           height="1"
           id="rect4284" />
        <rect
           x="0"
           y="16"
           width="5"
           height="1"
           id="rect4286" />
        <g
           transform="translate(2,2)"
           id="g4288">
          <circle
             cx="0.5"
             cy="16.5"
             r="0.5"
             id="circle4290" />
          <circle
             cx="4.5"
             cy="16.5"
             r="0.5"
             id="circle4292" />
          <circle
             cx="4.5"
             cy="12.5"
             r="0.5"
             id="circle4294" />
          <circle
             cx="8.5"
             cy="12.5"
             r="0.5"
             id="circle4296" />
          <circle
             cx="8.5"
             cy="16.5"
             r="0.5"
             id="circle4298" />
          <circle
             cx="12.5"
             cy="16.5"
             r="0.5"
             id="circle4300" />
          <circle
             cx="16.5"
             cy="16.5"
             r="0.5"
             id="circle4302" />
          <circle
             cx="16.5"
             cy="12.5"
             r="0.5"
             id="circle4304" />
          <circle
             cx="12.5"
             cy="12.5"
             r="0.5"
             id="circle4306" />
          <circle
             cx="16.5"
             cy="8.5"
             r="0.5"
             id="circle4308" />
          <circle
             cx="12.5"
             cy="8.5"
             r="0.5"
             id="circle4310" />
          <circle
             cx="8.5"
             cy="8.5"
             r="0.5"
             id="circle4312" />
          <circle
             cx="12.5"
             cy="4.5"
             r="0.5"
             id="circle4314" />
          <circle
             cx="16.5"
             cy="4.5"
             r="0.5"
             id="circle4316" />
          <circle
             cx="14.5"
             cy="6.5"
             r="0.5"
             id="circle4318" />
          <circle
             cx="14.5"
             cy="10.5"
             r="0.5"
             id="circle4320" />
          <circle
             cx="10.5"
             cy="10.5"
             r="0.5"
             id="circle4322" />
          <circle
             cx="10.5"
             cy="14.5"
             r="0.5"
             id="circle4324" />
          <circle
             cx="6.5"
             cy="14.5"
             r="0.5"
             id="circle4326" />
          <circle
             cx="14.5"
             cy="14.5"
             r="0.5"
             id="circle4328" />
          <circle
             cx="16.5"
             cy="0.5"
             r="0.5"
             id="circle4330" />
        </g>
      </g>
    </g>
  </g>
</svg>
